<mxfile host="65bd71144e">
    <diagram id="nP-OY_wl-n511qJIP8V6" name="Page-1">
        <mxGraphModel dx="1172" dy="807" grid="1" gridSize="10" guides="1" tooltips="1" connect="1" arrows="1" fold="1" page="1" pageScale="1" pageWidth="1169" pageHeight="827" math="1" shadow="0">
            <root>
                <mxCell id="0"/>
                <mxCell id="1" parent="0"/>
                <mxCell id="3" value="" style="edgeStyle=none;rounded=0;jumpStyle=none;html=1;shadow=0;labelBackgroundColor=none;startArrow=none;startFill=0;endArrow=classic;endFill=1;jettySize=auto;orthogonalLoop=1;strokeColor=#2F5B7C;strokeWidth=3;fontFamily=Helvetica;fontSize=16;fontColor=#23445D;spacing=5;" parent="1" source="5" target="12" edge="1">
                    <mxGeometry relative="1" as="geometry"/>
                </mxCell>
                <mxCell id="4" value="" style="edgeStyle=none;rounded=0;jumpStyle=none;html=1;shadow=0;labelBackgroundColor=none;startArrow=none;startFill=0;endArrow=classic;endFill=1;jettySize=auto;orthogonalLoop=1;strokeColor=#2F5B7C;strokeWidth=3;fontFamily=Helvetica;fontSize=16;fontColor=#23445D;spacing=5;" parent="1" source="5" target="9" edge="1">
                    <mxGeometry relative="1" as="geometry"/>
                </mxCell>
                <mxCell id="5" value="Simple Atomic Structure" style="rounded=1;whiteSpace=wrap;html=1;shadow=0;labelBackgroundColor=none;strokeColor=none;strokeWidth=3;fillColor=#2F5B7C;fontFamily=Helvetica;fontSize=16;fontColor=#FFFFFF;align=center;fontStyle=1;spacing=5;arcSize=7;perimeterSpacing=2;" parent="1" vertex="1">
                    <mxGeometry x="1082" y="810" width="150" height="70" as="geometry"/>
                </mxCell>
                <mxCell id="6" value="" style="edgeStyle=none;rounded=1;jumpStyle=none;html=1;shadow=0;labelBackgroundColor=none;startArrow=none;startFill=0;jettySize=auto;orthogonalLoop=1;strokeColor=#E85642;strokeWidth=3;fontFamily=Helvetica;fontSize=14;fontColor=#FFFFFF;spacing=5;fontStyle=1;fillColor=#b0e3e6;entryX=1;entryY=1;entryDx=0;entryDy=0;exitX=0;exitY=0;exitDx=0;exitDy=0;" parent="1" source="9" target="25" edge="1">
                    <mxGeometry relative="1" as="geometry">
                        <mxPoint x="763.6412213740459" y="746" as="targetPoint"/>
                    </mxGeometry>
                </mxCell>
                <mxCell id="9" value="Bohr's Theory of hydrogen atom" style="rounded=1;whiteSpace=wrap;html=1;shadow=0;labelBackgroundColor=none;strokeColor=none;strokeWidth=3;fillColor=#e85642;fontFamily=Helvetica;fontSize=14;fontColor=#FFFFFF;align=center;spacing=5;fontStyle=1;arcSize=7;perimeterSpacing=2;" parent="1" vertex="1">
                    <mxGeometry x="802" y="815" width="150" height="60" as="geometry"/>
                </mxCell>
                <mxCell id="12" value="Models of Atom" style="rounded=1;whiteSpace=wrap;html=1;shadow=0;labelBackgroundColor=none;strokeColor=none;strokeWidth=3;fillColor=#12aab5;fontFamily=Helvetica;fontSize=14;fontColor=#FFFFFF;align=center;spacing=5;fontStyle=1;arcSize=7;perimeterSpacing=2;" parent="1" vertex="1">
                    <mxGeometry x="1382" y="815" width="150" height="60" as="geometry"/>
                </mxCell>
                <mxCell id="15" value="" style="edgeStyle=none;rounded=1;jumpStyle=none;html=1;shadow=0;labelBackgroundColor=none;startArrow=none;startFill=0;jettySize=auto;orthogonalLoop=1;strokeColor=#12AAB5;strokeWidth=3;fontFamily=Helvetica;fontSize=14;fontColor=#FFFFFF;spacing=5;fontStyle=1;fillColor=#b0e3e6;entryX=0;entryY=0.5;entryDx=0;entryDy=0;exitX=1;exitY=0.5;exitDx=0;exitDy=0;" parent="1" source="12" target="20" edge="1">
                    <mxGeometry relative="1" as="geometry">
                        <mxPoint x="1590" y="806.3666666666668" as="targetPoint"/>
                    </mxGeometry>
                </mxCell>
                <mxCell id="16" value="" style="edgeStyle=none;rounded=1;jumpStyle=none;html=1;shadow=0;labelBackgroundColor=none;startArrow=none;startFill=0;jettySize=auto;orthogonalLoop=1;strokeColor=#12AAB5;strokeWidth=3;fontFamily=Helvetica;fontSize=14;fontColor=#FFFFFF;spacing=5;fontStyle=1;fillColor=#b0e3e6;entryX=0;entryY=1;entryDx=0;entryDy=0;exitX=0.75;exitY=0;exitDx=0;exitDy=0;" parent="1" source="12" edge="1">
                    <mxGeometry relative="1" as="geometry">
                        <mxPoint x="1549.9999999999995" y="410" as="targetPoint"/>
                    </mxGeometry>
                </mxCell>
                <mxCell id="20" value="J.J. Thomson's model" style="swimlane;gradientColor=none;strokeColor=#61C6CE;startSize=23;fillColor=#00BFBF;fontColor=#000000;" parent="1" vertex="1">
                    <mxGeometry x="1620" y="560" width="310" height="90" as="geometry"/>
                </mxCell>
                <mxCell id="201" value="Plum Pudding model of atom" style="rounded=1;whiteSpace=wrap;html=1;shadow=0;labelBackgroundColor=none;strokeColor=none;strokeWidth=3;fillColor=#61c6ce;fontFamily=Helvetica;fontSize=14;align=center;spacing=5;fontStyle=0;arcSize=7;perimeterSpacing=2;fontColor=#000000;" vertex="1" parent="20">
                    <mxGeometry x="9" y="30" width="291" height="50" as="geometry"/>
                </mxCell>
                <mxCell id="25" value="Energy of electron" style="swimlane;gradientColor=none;startSize=23;fontColor=#000000;fillColor=#DE7A73;strokeColor=#DE7A73;" parent="1" vertex="1">
                    <mxGeometry x="139" y="150" width="460" height="150" as="geometry"/>
                </mxCell>
                <mxCell id="26" value="\[E_{total}=E_p+E_k\]" style="rounded=1;whiteSpace=wrap;html=1;shadow=0;labelBackgroundColor=none;strokeColor=none;strokeWidth=3;fontFamily=Helvetica;fontSize=14;align=center;spacing=5;fontStyle=0;arcSize=7;perimeterSpacing=2;fontColor=#000000;fillColor=#f08e81;" parent="25" vertex="1">
                    <mxGeometry x="9" y="30" width="441" height="50" as="geometry"/>
                </mxCell>
                <mxCell id="27" value="\[E_n=-\frac{ke^2}{2r_n}\]" style="rounded=1;whiteSpace=wrap;html=1;shadow=0;labelBackgroundColor=none;strokeColor=none;strokeWidth=3;fontFamily=Helvetica;fontSize=14;align=center;spacing=5;fontStyle=0;arcSize=7;perimeterSpacing=2;fontColor=#000000;fillColor=#f08e81;" parent="25" vertex="1">
                    <mxGeometry x="9" y="90" width="441" height="50" as="geometry"/>
                </mxCell>
                <mxCell id="30" value="Bohr's Postulate" style="swimlane;gradientColor=none;startSize=23;fontColor=#000000;fillColor=#DE7A73;strokeColor=#DE7A73;" parent="1" vertex="1">
                    <mxGeometry x="130" y="350" width="389" height="310" as="geometry"/>
                </mxCell>
                <mxCell id="31" value="\[F_c=F_E \Rightarrow \frac{mv_n^2}{r_n}=\frac{ke^2}{r_n^2}\]" style="rounded=1;whiteSpace=wrap;html=1;shadow=0;labelBackgroundColor=none;strokeColor=none;strokeWidth=3;fontFamily=Helvetica;fontSize=14;align=center;spacing=5;fontStyle=0;arcSize=7;perimeterSpacing=2;fontColor=#000000;fillColor=#f08e81;" parent="30" vertex="1">
                    <mxGeometry x="9" y="30" width="371" height="60" as="geometry"/>
                </mxCell>
                <mxCell id="147" value="\[L=mv_nr_n=n\frac{h}{2\pi}\]" style="rounded=1;whiteSpace=wrap;html=1;shadow=0;labelBackgroundColor=none;strokeColor=none;strokeWidth=3;fontFamily=Helvetica;fontSize=14;align=center;spacing=5;fontStyle=0;arcSize=7;perimeterSpacing=2;fontColor=#000000;fillColor=#f08e81;" parent="30" vertex="1">
                    <mxGeometry x="9" y="100" width="371" height="60" as="geometry"/>
                </mxCell>
                <mxCell id="208" value="Energy of electron remains constant." style="rounded=1;whiteSpace=wrap;html=1;shadow=0;labelBackgroundColor=none;strokeColor=none;strokeWidth=3;fontFamily=Helvetica;fontSize=14;align=center;spacing=5;fontStyle=0;arcSize=7;perimeterSpacing=2;fontColor=#000000;fillColor=#f08e81;" vertex="1" parent="30">
                    <mxGeometry x="9" y="170" width="371" height="60" as="geometry"/>
                </mxCell>
                <mxCell id="209" value="\[E_i-E_f=hf=\frac{hc}{\lambda}\]" style="rounded=1;whiteSpace=wrap;html=1;shadow=0;labelBackgroundColor=none;strokeColor=none;strokeWidth=3;fontFamily=Helvetica;fontSize=14;align=center;spacing=5;fontStyle=0;arcSize=7;perimeterSpacing=2;fontColor=#000000;fillColor=#f08e81;" vertex="1" parent="30">
                    <mxGeometry x="9" y="240" width="371" height="60" as="geometry"/>
                </mxCell>
                <mxCell id="53" value="" style="edgeStyle=none;rounded=1;jumpStyle=none;html=1;shadow=0;labelBackgroundColor=none;startArrow=none;startFill=0;jettySize=auto;orthogonalLoop=1;strokeColor=#E85642;strokeWidth=3;fontFamily=Helvetica;fontSize=14;fontColor=#FFFFFF;spacing=5;fontStyle=1;fillColor=#b0e3e6;exitX=0;exitY=0.25;exitDx=0;exitDy=0;entryX=1;entryY=0.75;entryDx=0;entryDy=0;" parent="1" source="9" target="30" edge="1">
                    <mxGeometry relative="1" as="geometry">
                        <mxPoint x="850.3587786259545" y="823" as="sourcePoint"/>
                        <mxPoint x="773.6412213740459" y="756" as="targetPoint"/>
                    </mxGeometry>
                </mxCell>
                <mxCell id="54" value="Rutherford's model" style="swimlane;gradientColor=none;strokeColor=#61C6CE;startSize=23;fillColor=#00BFBF;fontColor=#000000;" parent="1" vertex="1">
                    <mxGeometry x="1620" y="740" width="460" height="260" as="geometry"/>
                </mxCell>
                <mxCell id="55" value="Atom consisting of number of electrons moving round a positive charged nucleus." style="rounded=1;whiteSpace=wrap;html=1;shadow=0;labelBackgroundColor=none;strokeColor=none;strokeWidth=3;fillColor=#61c6ce;fontFamily=Helvetica;fontSize=14;align=center;spacing=5;fontStyle=0;arcSize=7;perimeterSpacing=2;fontColor=#000000;" parent="54" vertex="1">
                    <mxGeometry x="9" y="30" width="441" height="60" as="geometry"/>
                </mxCell>
                <mxCell id="203" value="alpha-particle scattering experiment" style="swimlane;gradientColor=none;strokeColor=#61C6CE;startSize=23;fillColor=#00BFBF;fontColor=#000000;" vertex="1" parent="54">
                    <mxGeometry x="9" y="100" width="441" height="150" as="geometry"/>
                </mxCell>
                <mxCell id="204" value="Atom is spacious" style="rounded=1;whiteSpace=wrap;html=1;shadow=0;labelBackgroundColor=none;strokeColor=none;strokeWidth=3;fillColor=#61c6ce;fontFamily=Helvetica;fontSize=14;align=center;spacing=5;fontStyle=0;arcSize=7;perimeterSpacing=2;fontColor=#000000;" vertex="1" parent="203">
                    <mxGeometry x="9" y="30" width="421" height="50" as="geometry"/>
                </mxCell>
                <mxCell id="206" value="Electrostatic repulsive force between alpha particles" style="rounded=1;whiteSpace=wrap;html=1;shadow=0;labelBackgroundColor=none;strokeColor=none;strokeWidth=3;fillColor=#61c6ce;fontFamily=Helvetica;fontSize=14;align=center;spacing=5;fontStyle=0;arcSize=7;perimeterSpacing=2;fontColor=#000000;" vertex="1" parent="203">
                    <mxGeometry x="10.5" y="90" width="421" height="50" as="geometry"/>
                </mxCell>
                <mxCell id="58" value="Modern model" style="swimlane;gradientColor=none;strokeColor=#61C6CE;startSize=23;fillColor=#00BFBF;fontColor=#000000;" parent="1" vertex="1">
                    <mxGeometry x="1550" y="1120" width="550" height="80" as="geometry"/>
                </mxCell>
                <mxCell id="194" value="Electron cloud model" style="rounded=1;whiteSpace=wrap;html=1;shadow=0;labelBackgroundColor=none;strokeColor=none;strokeWidth=3;fillColor=#61c6ce;fontFamily=Helvetica;fontSize=14;align=center;spacing=5;fontStyle=0;arcSize=7;perimeterSpacing=2;fontColor=#000000;" parent="58" vertex="1">
                    <mxGeometry x="10" y="30" width="531" height="40" as="geometry"/>
                </mxCell>
                <mxCell id="77" value="" style="edgeStyle=none;rounded=1;jumpStyle=none;html=1;shadow=0;labelBackgroundColor=none;startArrow=none;startFill=0;jettySize=auto;orthogonalLoop=1;strokeColor=#12AAB5;strokeWidth=3;fontFamily=Helvetica;fontSize=14;fontColor=#FFFFFF;spacing=5;fontStyle=1;fillColor=#b0e3e6;entryX=0;entryY=0;entryDx=0;entryDy=0;exitX=1;exitY=1;exitDx=0;exitDy=0;" parent="1" source="12" target="58" edge="1">
                    <mxGeometry relative="1" as="geometry">
                        <mxPoint x="1425" y="980" as="targetPoint"/>
                        <mxPoint x="1456.248" y="887" as="sourcePoint"/>
                    </mxGeometry>
                </mxCell>
                <mxCell id="78" value="" style="edgeStyle=none;rounded=1;jumpStyle=none;html=1;shadow=0;labelBackgroundColor=none;startArrow=none;startFill=0;jettySize=auto;orthogonalLoop=1;strokeColor=#12AAB5;strokeWidth=3;fontFamily=Helvetica;fontSize=14;fontColor=#FFFFFF;spacing=5;fontStyle=1;fillColor=#b0e3e6;entryX=0;entryY=0.5;entryDx=0;entryDy=0;exitX=1;exitY=0.75;exitDx=0;exitDy=0;" parent="1" source="12" target="54" edge="1">
                    <mxGeometry relative="1" as="geometry">
                        <mxPoint x="1920" y="942.5" as="targetPoint"/>
                        <mxPoint x="1544" y="871" as="sourcePoint"/>
                    </mxGeometry>
                </mxCell>
                <mxCell id="200" value="Dalton's model" style="rounded=1;whiteSpace=wrap;html=1;shadow=0;labelBackgroundColor=none;strokeColor=none;strokeWidth=3;fillColor=#61c6ce;fontFamily=Helvetica;fontSize=14;align=center;spacing=5;fontStyle=0;arcSize=7;perimeterSpacing=2;fontColor=#000000;" vertex="1" parent="1">
                    <mxGeometry x="1550" y="360" width="291" height="50" as="geometry"/>
                </mxCell>
                <mxCell id="210" value="Conditions of stability" style="swimlane;gradientColor=none;startSize=23;fontColor=#000000;fillColor=#DE7A73;strokeColor=#DE7A73;" vertex="1" parent="1">
                    <mxGeometry x="130" y="725" width="389" height="240" as="geometry"/>
                </mxCell>
                <mxCell id="211" value="\[r_n=\frac{n^2h^2}{4\pi^2kme^2}\]" style="rounded=1;whiteSpace=wrap;html=1;shadow=0;labelBackgroundColor=none;strokeColor=none;strokeWidth=3;fontFamily=Helvetica;fontSize=14;align=center;spacing=5;fontStyle=0;arcSize=7;perimeterSpacing=2;fontColor=#000000;fillColor=#f08e81;" vertex="1" parent="210">
                    <mxGeometry x="9" y="30" width="371" height="60" as="geometry"/>
                </mxCell>
                <mxCell id="212" value="\[v_n=\frac{e^2}{2 \varepsilon_0 nh}\]" style="rounded=1;whiteSpace=wrap;html=1;shadow=0;labelBackgroundColor=none;strokeColor=none;strokeWidth=3;fontFamily=Helvetica;fontSize=14;align=center;spacing=5;fontStyle=0;arcSize=7;perimeterSpacing=2;fontColor=#000000;fillColor=#f08e81;" vertex="1" parent="210">
                    <mxGeometry x="9" y="100" width="371" height="60" as="geometry"/>
                </mxCell>
                <mxCell id="213" value="\[E_n=\frac{-13.6}{n^2}\mathrm{eV}\]" style="rounded=1;whiteSpace=wrap;html=1;shadow=0;labelBackgroundColor=none;strokeColor=none;strokeWidth=3;fontFamily=Helvetica;fontSize=14;align=center;spacing=5;fontStyle=0;arcSize=7;perimeterSpacing=2;fontColor=#000000;fillColor=#f08e81;" vertex="1" parent="210">
                    <mxGeometry x="9" y="170" width="371" height="60" as="geometry"/>
                </mxCell>
                <mxCell id="215" value="" style="edgeStyle=none;rounded=1;jumpStyle=none;html=1;shadow=0;labelBackgroundColor=none;startArrow=none;startFill=0;jettySize=auto;orthogonalLoop=1;strokeColor=#E85642;strokeWidth=3;fontFamily=Helvetica;fontSize=14;fontColor=#FFFFFF;spacing=5;fontStyle=1;fillColor=#b0e3e6;exitX=0;exitY=0.5;exitDx=0;exitDy=0;entryX=1;entryY=0.5;entryDx=0;entryDy=0;" edge="1" parent="1" source="9" target="210">
                    <mxGeometry relative="1" as="geometry">
                        <mxPoint x="810" y="839" as="sourcePoint"/>
                        <mxPoint x="529" y="592.5" as="targetPoint"/>
                    </mxGeometry>
                </mxCell>
                <mxCell id="216" value="Hydrogen spectral" style="swimlane;gradientColor=none;startSize=23;fontColor=#000000;fillColor=#DE7A73;strokeColor=#DE7A73;" vertex="1" parent="1">
                    <mxGeometry x="130" y="990" width="389" height="250" as="geometry"/>
                </mxCell>
                <mxCell id="217" value="\[\frac{1}{\lambda}=R(\frac{1}{n^2_f}-\frac{1}{n^2_i}&lt;br&gt;)\]" style="rounded=1;whiteSpace=wrap;html=1;shadow=0;labelBackgroundColor=none;strokeColor=none;strokeWidth=3;fontFamily=Helvetica;fontSize=14;align=center;spacing=5;fontStyle=0;arcSize=7;perimeterSpacing=2;fontColor=#000000;fillColor=#f08e81;" vertex="1" parent="216">
                    <mxGeometry x="9" y="30" width="371" height="60" as="geometry"/>
                </mxCell>
                <mxCell id="218" value="\(n_f=1\): Lyman Series (u.v. series)" style="rounded=1;whiteSpace=wrap;html=1;shadow=0;labelBackgroundColor=none;strokeColor=none;strokeWidth=3;fontFamily=Helvetica;fontSize=14;align=center;spacing=5;fontStyle=0;arcSize=7;perimeterSpacing=2;fontColor=#000000;fillColor=#f08e81;" vertex="1" parent="216">
                    <mxGeometry x="9" y="100" width="371" height="40" as="geometry"/>
                </mxCell>
                <mxCell id="223" value="\(n_f=2\): Balmer Series (visible series)" style="rounded=1;whiteSpace=wrap;html=1;shadow=0;labelBackgroundColor=none;strokeColor=none;strokeWidth=3;fontFamily=Helvetica;fontSize=14;align=center;spacing=5;fontStyle=0;arcSize=7;perimeterSpacing=2;fontColor=#000000;fillColor=#f08e81;" vertex="1" parent="216">
                    <mxGeometry x="9" y="150" width="371" height="40" as="geometry"/>
                </mxCell>
                <mxCell id="224" value="\(n_f=3\): Paschen Series (I.R. series)" style="rounded=1;whiteSpace=wrap;html=1;shadow=0;labelBackgroundColor=none;strokeColor=none;strokeWidth=3;fontFamily=Helvetica;fontSize=14;align=center;spacing=5;fontStyle=0;arcSize=7;perimeterSpacing=2;fontColor=#000000;fillColor=#f08e81;" vertex="1" parent="216">
                    <mxGeometry x="9" y="200" width="371" height="40" as="geometry"/>
                </mxCell>
                <mxCell id="225" value="" style="edgeStyle=none;rounded=1;jumpStyle=none;html=1;shadow=0;labelBackgroundColor=none;startArrow=none;startFill=0;jettySize=auto;orthogonalLoop=1;strokeColor=#E85642;strokeWidth=3;fontFamily=Helvetica;fontSize=14;fontColor=#FFFFFF;spacing=5;fontStyle=1;fillColor=#b0e3e6;exitX=0;exitY=0.75;exitDx=0;exitDy=0;entryX=1;entryY=0.25;entryDx=0;entryDy=0;" edge="1" parent="1" source="9" target="216">
                    <mxGeometry relative="1" as="geometry">
                        <mxPoint x="810" y="855" as="sourcePoint"/>
                        <mxPoint x="529" y="855" as="targetPoint"/>
                    </mxGeometry>
                </mxCell>
                <mxCell id="231" value="Energy levels in spectra" style="swimlane;gradientColor=none;startSize=23;fontColor=#000000;fillColor=#DE7A73;strokeColor=#DE7A73;" vertex="1" parent="1">
                    <mxGeometry x="170" y="1270" width="389" height="310" as="geometry"/>
                </mxCell>
                <mxCell id="232" value="\[f_{max}=\frac{E_n-E_1}{h}\]" style="rounded=1;whiteSpace=wrap;html=1;shadow=0;labelBackgroundColor=none;strokeColor=none;strokeWidth=3;fontFamily=Helvetica;fontSize=14;align=center;spacing=5;fontStyle=0;arcSize=7;perimeterSpacing=2;fontColor=#000000;fillColor=#f08e81;" vertex="1" parent="231">
                    <mxGeometry x="9" y="30" width="371" height="60" as="geometry"/>
                </mxCell>
                <mxCell id="236" value="\[f_{min}=\frac{E_n-E_{n-1}}{h}\]" style="rounded=1;whiteSpace=wrap;html=1;shadow=0;labelBackgroundColor=none;strokeColor=none;strokeWidth=3;fontFamily=Helvetica;fontSize=14;align=center;spacing=5;fontStyle=0;arcSize=7;perimeterSpacing=2;fontColor=#000000;fillColor=#f08e81;" vertex="1" parent="231">
                    <mxGeometry x="9" y="100" width="371" height="60" as="geometry"/>
                </mxCell>
                <mxCell id="237" value="\[\lambda_{max}=\frac{hc}{E_n-E_{n-1}}\]" style="rounded=1;whiteSpace=wrap;html=1;shadow=0;labelBackgroundColor=none;strokeColor=none;strokeWidth=3;fontFamily=Helvetica;fontSize=14;align=center;spacing=5;fontStyle=0;arcSize=7;perimeterSpacing=2;fontColor=#000000;fillColor=#f08e81;" vertex="1" parent="231">
                    <mxGeometry x="9" y="170" width="371" height="60" as="geometry"/>
                </mxCell>
                <mxCell id="238" value="\[\lambda_{min}=\frac{hc}{E_n-E_1}\]" style="rounded=1;whiteSpace=wrap;html=1;shadow=0;labelBackgroundColor=none;strokeColor=none;strokeWidth=3;fontFamily=Helvetica;fontSize=14;align=center;spacing=5;fontStyle=0;arcSize=7;perimeterSpacing=2;fontColor=#000000;fillColor=#f08e81;" vertex="1" parent="231">
                    <mxGeometry x="9" y="240" width="371" height="60" as="geometry"/>
                </mxCell>
                <mxCell id="239" value="" style="edgeStyle=none;rounded=1;jumpStyle=none;html=1;shadow=0;labelBackgroundColor=none;startArrow=none;startFill=0;jettySize=auto;orthogonalLoop=1;strokeColor=#E85642;strokeWidth=3;fontFamily=Helvetica;fontSize=14;fontColor=#FFFFFF;spacing=5;fontStyle=1;fillColor=#b0e3e6;exitX=0;exitY=1;exitDx=0;exitDy=0;entryX=1;entryY=0;entryDx=0;entryDy=0;" edge="1" parent="1" source="9" target="231">
                    <mxGeometry relative="1" as="geometry">
                        <mxPoint x="810" y="871" as="sourcePoint"/>
                        <mxPoint x="529" y="1062.5" as="targetPoint"/>
                    </mxGeometry>
                </mxCell>
            </root>
        </mxGraphModel>
    </diagram>
</mxfile>